<svg xmlns="http://www.w3.org/2000/svg" xmlns:xlink="http://www.w3.org/1999/xlink" width="54" zoomAndPan="magnify" viewBox="0 0 40.5 41.25" height="55" preserveAspectRatio="xMidYMid meet" version="1.0"><defs><clipPath id="a6f7116e21"><path d="M 22.699219 35.914062 L 27.6875 35.914062 L 27.6875 40.511719 L 22.699219 40.511719 Z M 22.699219 35.914062 " clip-rule="nonzero"/></clipPath><clipPath id="1fc3284258"><path d="M 9.867188 35.914062 L 14.855469 35.914062 L 14.855469 40.511719 L 9.867188 40.511719 Z M 9.867188 35.914062 " clip-rule="nonzero"/></clipPath><clipPath id="e702e30da8"><path d="M 14.378906 7.894531 L 39.894531 7.894531 L 39.894531 32.851562 L 14.378906 32.851562 Z M 14.378906 7.894531 " clip-rule="nonzero"/></clipPath><clipPath id="d5bf384cc2"><path d="M 0.117188 27 L 6 27 L 6 29 L 0.117188 29 Z M 0.117188 27 " clip-rule="nonzero"/></clipPath></defs><g clip-path="url(#a6f7116e21)"><path fill="#fab03c" d="M 25.179688 39.503906 C 24.519531 39.503906 23.984375 38.972656 23.984375 38.316406 C 23.984375 37.660156 24.519531 37.132812 25.179688 37.132812 C 25.839844 37.132812 26.378906 37.660156 26.378906 38.316406 C 26.378906 38.972656 25.839844 39.503906 25.179688 39.503906 Z M 25.179688 35.925781 C 23.847656 35.925781 22.769531 36.996094 22.769531 38.316406 C 22.769531 39.636719 23.847656 40.707031 25.179688 40.707031 C 26.511719 40.707031 27.59375 39.636719 27.59375 38.316406 C 27.59375 36.996094 26.511719 35.925781 25.179688 35.925781 " fill-opacity="1" fill-rule="nonzero"/></g><g clip-path="url(#1fc3284258)"><path fill="#fab03c" d="M 12.363281 39.503906 C 11.699219 39.503906 11.164062 38.972656 11.164062 38.316406 C 11.164062 37.660156 11.699219 37.132812 12.363281 37.132812 C 13.023438 37.132812 13.558594 37.660156 13.558594 38.316406 C 13.558594 38.972656 13.023438 39.503906 12.363281 39.503906 Z M 12.363281 35.925781 C 11.027344 35.925781 9.949219 36.996094 9.949219 38.316406 C 9.949219 39.636719 11.027344 40.707031 12.363281 40.707031 C 13.695312 40.707031 14.773438 39.636719 14.773438 38.316406 C 14.773438 36.996094 13.695312 35.925781 12.363281 35.925781 " fill-opacity="1" fill-rule="nonzero"/></g><path fill="#fab03c" d="M 29.238281 32.277344 C 29.238281 32.433594 29.109375 32.558594 28.949219 32.558594 L 27.246094 32.558594 C 27.089844 32.558594 26.859375 32.480469 26.734375 32.386719 L 26.203125 31.976562 C 26.078125 31.878906 25.847656 31.800781 25.6875 31.800781 L 23.292969 31.800781 C 23.132812 31.800781 23.003906 31.671875 23.003906 31.515625 L 23.003906 27.902344 C 23.003906 27.746094 23.132812 27.621094 23.292969 27.621094 L 26.433594 27.621094 C 26.589844 27.621094 26.785156 27.730469 26.867188 27.863281 L 29.089844 31.554688 C 29.171875 31.691406 29.238281 31.929688 29.238281 32.085938 Z M 30.125 31.515625 C 30.125 31.359375 30.058594 31.121094 29.972656 30.988281 L 27.277344 26.652344 C 27.195312 26.515625 27 26.40625 26.839844 26.40625 L 21.804688 26.40625 C 21.648438 26.40625 21.515625 26.535156 21.515625 26.691406 L 21.515625 34.429688 L 21.132812 34.429688 L 21.132812 24.535156 L 6.046875 24.535156 L 6.046875 35.253906 L 6.75 35.253906 L 6.75 36.328125 L 6.046875 36.328125 L 6.046875 37.839844 L 9.769531 37.839844 C 10 36.589844 11.101562 35.644531 12.425781 35.644531 C 13.75 35.644531 14.851562 36.589844 15.082031 37.839844 L 22.515625 37.839844 C 22.742188 36.601562 23.835938 35.660156 25.152344 35.660156 C 26.46875 35.660156 27.5625 36.601562 27.789062 37.839844 L 30.597656 37.839844 L 30.597656 36.132812 L 30.125 36.132812 L 30.125 31.515625 " fill-opacity="1" fill-rule="nonzero"/><g clip-path="url(#e702e30da8)"><path fill="#fab03c" d="M 35.390625 10.609375 C 29.976562 6.410156 22.105469 7.164062 17.597656 12.308594 C 14.878906 15.410156 13.933594 19.441406 14.660156 23.183594 C 14.734375 23.558594 15.058594 23.828125 15.445312 23.828125 C 15.945312 23.828125 16.320312 23.378906 16.226562 22.894531 C 15.574219 19.566406 16.433594 15.980469 18.890625 13.238281 C 22.867188 8.8125 29.699219 8.199219 34.410156 11.851562 C 39.519531 15.8125 40.242188 23.175781 36.085938 28.035156 C 34.785156 29.558594 33.15625 30.65625 31.390625 31.304688 C 31.074219 31.421875 30.863281 31.714844 30.863281 32.046875 C 30.863281 32.597656 31.417969 32.980469 31.9375 32.789062 C 33.953125 32.046875 35.8125 30.796875 37.300781 29.054688 C 42.039062 23.515625 41.214844 15.125 35.390625 10.609375 " fill-opacity="1" fill-rule="nonzero"/></g><path fill="#fab03c" d="M 3.375 26.796875 L 5.710938 26.796875 L 5.710938 25.769531 L 3.375 25.769531 L 3.375 26.796875 " fill-opacity="1" fill-rule="nonzero"/><g clip-path="url(#d5bf384cc2)"><path fill="#fab03c" d="M 5.472656 27.648438 L 0.121094 27.648438 L 0.121094 28.675781 L 5.472656 28.675781 L 5.472656 27.648438 " fill-opacity="1" fill-rule="nonzero"/></g><path fill="#fab03c" d="M 2.582031 30.640625 L 5.710938 30.640625 L 5.710938 29.613281 L 2.582031 29.613281 L 2.582031 30.640625 " fill-opacity="1" fill-rule="nonzero"/><path fill="#fab03c" d="M 27.132812 21.277344 C 26.75 21.277344 26.441406 20.972656 26.441406 20.59375 C 26.441406 20.214844 26.75 19.910156 27.132812 19.910156 C 27.511719 19.910156 27.824219 20.214844 27.824219 20.59375 C 27.824219 20.972656 27.511719 21.277344 27.132812 21.277344 Z M 28.46875 22 C 28.683594 21.796875 28.855469 21.546875 28.964844 21.253906 C 29.25 20.480469 29 19.640625 28.40625 19.132812 L 30.945312 12.210938 C 31.050781 11.929688 30.902344 11.613281 30.617188 11.511719 L 30.003906 11.289062 C 29.71875 11.1875 29.402344 11.335938 29.296875 11.617188 L 26.691406 18.710938 C 26.070312 18.855469 25.53125 19.296875 25.296875 19.933594 C 24.929688 20.933594 25.453125 22.046875 26.464844 22.410156 C 26.5625 22.445312 26.664062 22.46875 26.761719 22.488281 L 29.03125 27.304688 C 29.15625 27.578125 29.488281 27.695312 29.765625 27.566406 L 30.351562 27.296875 C 30.628906 27.167969 30.75 26.839844 30.621094 26.566406 L 28.46875 22 " fill-opacity="1" fill-rule="nonzero"/></svg>