<svg xmlns="http://www.w3.org/2000/svg" xmlns:xlink="http://www.w3.org/1999/xlink" width="54" zoomAndPan="magnify" viewBox="0 0 40.5 41.25" height="55" preserveAspectRatio="xMidYMid meet" version="1.0"><defs><clipPath id="2954542d1b"><path d="M 25 8.726562 L 34 8.726562 L 34 12 L 25 12 Z M 25 8.726562 " clip-rule="nonzero"/></clipPath><clipPath id="6b30a7708c"><path d="M 25 8.726562 L 29 8.726562 L 29 12 L 25 12 Z M 25 8.726562 " clip-rule="nonzero"/></clipPath><clipPath id="8751848d44"><path d="M 26 8.726562 L 32 8.726562 L 32 10 L 26 10 Z M 26 8.726562 " clip-rule="nonzero"/></clipPath><clipPath id="f6824549ec"><path d="M 14 8.726562 L 22 8.726562 L 22 14 L 14 14 Z M 14 8.726562 " clip-rule="nonzero"/></clipPath><clipPath id="e5b314af5d"><path d="M 14 8.726562 L 22 8.726562 L 22 14 L 14 14 Z M 14 8.726562 " clip-rule="nonzero"/></clipPath><clipPath id="28abd9f335"><path d="M 12 8.726562 L 15 8.726562 L 15 18 L 12 18 Z M 12 8.726562 " clip-rule="nonzero"/></clipPath><clipPath id="8b09734c18"><path d="M 12 8.726562 L 15 8.726562 L 15 18 L 12 18 Z M 12 8.726562 " clip-rule="nonzero"/></clipPath><clipPath id="37da8f8126"><path d="M 0.117188 10 L 8 10 L 8 20 L 0.117188 20 Z M 0.117188 10 " clip-rule="nonzero"/></clipPath><clipPath id="b83396e64b"><path d="M 37 11 L 39.894531 11 L 39.894531 14 L 37 14 Z M 37 11 " clip-rule="nonzero"/></clipPath><clipPath id="d9b244df87"><path d="M 37 12 L 39.894531 12 L 39.894531 14 L 37 14 Z M 37 12 " clip-rule="nonzero"/></clipPath><clipPath id="6888962604"><path d="M 19 33 L 38 33 L 38 35.574219 L 19 35.574219 Z M 19 33 " clip-rule="nonzero"/></clipPath><clipPath id="d43dd19c76"><path d="M 19 33 L 38 33 L 38 35.574219 L 19 35.574219 Z M 19 33 " clip-rule="nonzero"/></clipPath></defs><path fill="#944a1c" d="M 7.652344 14.183594 L 32.835938 14.183594 L 32.835938 12.589844 L 7.652344 12.589844 L 7.652344 14.183594 " fill-opacity="1" fill-rule="nonzero"/><path fill="#f8a325" d="M 30.066406 23.273438 C 30.066406 23.5 29.917969 23.683594 29.734375 23.683594 L 28.617188 23.683594 C 28.433594 23.683594 28.285156 23.5 28.285156 23.273438 L 28.285156 10.65625 C 28.285156 10.429688 28.433594 10.246094 28.617188 10.246094 L 29.734375 10.246094 C 29.917969 10.246094 30.066406 10.429688 30.066406 10.65625 L 30.066406 23.273438 " fill-opacity="1" fill-rule="nonzero"/><path fill="#e49322" d="M 29.691406 22.445312 L 29.246094 22.445312 L 29.246094 11.894531 L 29.695312 11.964844 C 29.695312 11.964844 29.730469 21.433594 29.695312 22.410156 C 29.695312 22.421875 29.691406 22.433594 29.691406 22.445312 " fill-opacity="1" fill-rule="nonzero"/><path fill="#d28620" d="M 28.617188 23.683594 L 29.734375 23.683594 C 29.917969 23.683594 30.066406 23.5 30.066406 23.273438 L 30.066406 11.199219 L 28.285156 11.128906 L 28.285156 11.746094 L 29.695312 11.964844 C 29.695312 11.964844 29.730469 21.433594 29.695312 22.410156 C 29.65625 23.386719 29.242188 23.238281 29.242188 23.238281 L 28.285156 23.238281 L 28.285156 23.273438 C 28.285156 23.5 28.433594 23.683594 28.617188 23.683594 " fill-opacity="1" fill-rule="nonzero"/><g clip-path="url(#2954542d1b)"><path fill="#849bbe" d="M 25.65625 8.726562 C 25.65625 8.726562 25.433594 10.203125 25.703125 10.726562 L 26.144531 10.726562 C 26.144531 10.726562 27.246094 10.117188 28.03125 10.703125 L 28.03125 11.164062 L 28.191406 11.328125 L 30.160156 11.328125 L 30.320312 11.164062 L 30.320312 10.683594 C 30.320312 10.683594 31.296875 9.535156 33.105469 11.027344 L 33.203125 10.964844 C 33.203125 10.964844 32.03125 8.984375 30.28125 8.726562 L 28.132812 8.726562 C 28.132812 8.726562 27.4375 9.421875 26.359375 8.726562 L 25.65625 8.726562 " fill-opacity="1" fill-rule="nonzero"/></g><g clip-path="url(#6b30a7708c)"><path fill="#657fa7" d="M 28.203125 10.519531 C 28.199219 9.847656 26.566406 10.046875 26.433594 10.105469 C 26.300781 10.160156 26.191406 10.386719 26.191406 10.386719 L 26.148438 10.675781 L 25.789062 10.679688 C 26.035156 10.261719 26.039062 9.085938 25.84375 8.726562 L 25.65625 8.726562 C 25.65625 8.726562 25.433594 10.203125 25.703125 10.726562 L 26.144531 10.726562 C 26.144531 10.726562 27.246094 10.117188 28.03125 10.703125 L 28.03125 11.164062 L 28.097656 11.230469 C 28.160156 11.042969 28.203125 10.917969 28.203125 10.519531 " fill-opacity="1" fill-rule="nonzero"/></g><path fill="#657fa7" d="M 33.105469 11.027344 L 33.152344 10.996094 C 32.484375 10.15625 30.980469 9.710938 30.257812 10.148438 C 30.105469 10.242188 30.320312 11.101562 30.320312 11.101562 L 30.320312 10.679688 C 30.320312 10.679688 31.296875 9.535156 33.105469 11.027344 " fill-opacity="1" fill-rule="nonzero"/><g clip-path="url(#8751848d44)"><path fill="#9eb6d8" d="M 31.667969 9.3125 C 31.265625 9.03125 30.800781 8.804688 30.28125 8.726562 L 28.132812 8.726562 C 28.132812 8.726562 27.4375 9.421875 26.359375 8.726562 L 26.320312 8.726562 C 26.386719 8.855469 26.648438 9.265625 27.296875 9.273438 C 27.296875 9.273438 27.917969 9.359375 28.183594 8.777344 L 30.257812 8.785156 C 30.257812 8.785156 30.957031 8.933594 31.667969 9.3125 " fill-opacity="1" fill-rule="nonzero"/></g><path fill="#8ea5c8" d="M 27.972656 10.175781 C 27.882812 10.128906 27.777344 10.097656 27.660156 10.074219 C 27.65625 10.074219 27.65625 10.074219 27.65625 10.074219 C 27.652344 10.074219 27.652344 10.074219 27.652344 10.074219 C 27.652344 10.074219 27.648438 10.074219 27.648438 10.074219 C 27.648438 10.070312 27.648438 10.070312 27.644531 10.070312 C 27.644531 10.070312 27.640625 10.070312 27.640625 10.070312 C 27.636719 10.070312 27.636719 10.070312 27.632812 10.070312 C 27.480469 10.042969 27.316406 10.03125 27.15625 10.03125 C 26.808594 10.03125 26.496094 10.082031 26.433594 10.105469 C 25.949219 9.453125 26.6875 9.125 26.699219 9.121094 C 26.84375 9.203125 27.039062 9.269531 27.292969 9.273438 C 27.292969 9.273438 27.292969 9.273438 27.296875 9.273438 C 27.296875 9.273438 27.328125 9.277344 27.382812 9.277344 C 27.480469 9.277344 27.648438 9.261719 27.8125 9.175781 C 28.371094 9.632812 27.972656 10.175781 27.972656 10.175781 " fill-opacity="1" fill-rule="nonzero"/><path fill="#7b92b8" d="M 27.972656 10.175781 C 27.882812 10.128906 27.777344 10.097656 27.660156 10.074219 C 27.777344 10.097656 27.882812 10.128906 27.972656 10.175781 M 26.433594 10.105469 L 26.433594 10.105469 M 27.660156 10.074219 C 27.65625 10.074219 27.65625 10.074219 27.65625 10.074219 C 27.65625 10.074219 27.65625 10.074219 27.660156 10.074219 M 27.65625 10.074219 C 27.652344 10.074219 27.652344 10.074219 27.652344 10.074219 C 27.652344 10.074219 27.652344 10.074219 27.65625 10.074219 M 27.652344 10.074219 C 27.652344 10.074219 27.648438 10.074219 27.648438 10.074219 C 27.648438 10.074219 27.652344 10.074219 27.652344 10.074219 M 27.648438 10.074219 C 27.648438 10.070312 27.648438 10.070312 27.644531 10.070312 C 27.648438 10.070312 27.648438 10.070312 27.648438 10.074219 M 27.644531 10.070312 L 27.644531 10.070312 M 27.640625 10.070312 L 27.640625 10.070312 " fill-opacity="1" fill-rule="nonzero"/><path fill="#9eb6d7" d="M 27.382812 9.277344 C 27.328125 9.277344 27.296875 9.273438 27.296875 9.273438 C 27.296875 9.273438 27.328125 9.277344 27.382812 9.277344 C 27.480469 9.277344 27.648438 9.261719 27.8125 9.175781 C 27.648438 9.261719 27.480469 9.277344 27.382812 9.277344 M 27.292969 9.273438 C 27.039062 9.269531 26.84375 9.203125 26.699219 9.121094 C 26.84375 9.203125 27.039062 9.269531 27.292969 9.273438 " fill-opacity="1" fill-rule="nonzero"/><path fill="#8ea5c8" d="M 30.066406 11.234375 L 28.285156 11.234375 C 28.285156 11.234375 28.203125 11.035156 28.597656 10.933594 L 29.910156 10.949219 C 29.910156 10.949219 29.726562 10.28125 30.066406 10.175781 C 30.066406 10.175781 30.109375 10.828125 30.203125 11.101562 L 30.066406 11.234375 " fill-opacity="1" fill-rule="nonzero"/><path fill="#fab245" d="M 28.925781 22.445312 L 28.417969 22.445312 L 28.417969 12.480469 C 28.417969 12.339844 28.53125 12.226562 28.671875 12.226562 C 28.8125 12.226562 28.925781 12.339844 28.925781 12.480469 L 28.925781 22.445312 " fill-opacity="1" fill-rule="nonzero"/><path fill="#849bbe" d="M 27.261719 24.820312 L 26.117188 25.089844 L 25.3125 24.230469 L 25.652344 23.105469 L 26.796875 22.835938 L 27.601562 23.691406 L 27.261719 24.820312 M 27.046875 22.371094 L 25.132812 14.203125 L 25.136719 14.203125 C 25.136719 14.203125 25.484375 13.367188 25.542969 13.222656 C 25.542969 13.222656 25.703125 12.71875 25.59375 12.515625 C 25.59375 12.515625 25.214844 11.609375 24.609375 11.003906 L 24.429688 11 L 24.757812 12.472656 L 23.84375 12.824219 L 22.6875 12.511719 L 22.972656 10.953125 L 22.878906 10.902344 L 21.96875 12.03125 C 21.488281 12.886719 22.140625 13.507812 22.140625 13.507812 L 23.292969 14.578125 L 25.222656 22.800781 C 24.847656 23.199219 24.675781 23.777344 24.808594 24.351562 C 25.023438 25.265625 25.933594 25.828125 26.84375 25.617188 C 27.757812 25.402344 28.320312 24.488281 28.105469 23.574219 C 27.972656 23 27.558594 22.5625 27.046875 22.371094 " fill-opacity="1" fill-rule="nonzero"/><path fill="#a7bcd9" d="M 24.910156 24.328125 C 24.777344 23.753906 24.949219 23.175781 25.324219 22.777344 L 23.398438 14.554688 L 22.242188 13.484375 C 22.242188 13.484375 21.589844 12.863281 22.070312 12.007812 L 22.9375 10.933594 L 22.878906 10.902344 L 21.96875 12.03125 C 21.488281 12.886719 22.140625 13.507812 22.140625 13.507812 L 23.292969 14.578125 L 25.222656 22.800781 C 24.847656 23.199219 24.675781 23.777344 24.808594 24.351562 C 25.023438 25.265625 25.933594 25.828125 26.84375 25.617188 C 26.863281 25.609375 26.878906 25.605469 26.894531 25.601562 C 26.003906 25.785156 25.121094 25.222656 24.910156 24.328125 " fill-opacity="1" fill-rule="nonzero"/><path fill="#778db3" d="M 26.941406 22.445312 L 26.101562 22.445312 L 23.84375 12.824219 L 24.757812 12.472656 L 24.445312 11.070312 C 25.042969 11.675781 25.410156 12.558594 25.410156 12.558594 C 25.519531 12.761719 25.359375 13.265625 25.359375 13.265625 C 25.300781 13.410156 24.953125 14.246094 24.953125 14.246094 L 24.945312 14.246094 L 26.863281 22.414062 C 26.886719 22.421875 26.914062 22.433594 26.941406 22.445312 " fill-opacity="1" fill-rule="nonzero"/><path fill="#818eaf" d="M 24.445312 11.070312 L 24.429688 11 L 24.445312 11.070312 " fill-opacity="1" fill-rule="nonzero"/><path fill="#5e779e" d="M 27.21875 22.445312 L 26.941406 22.445312 C 26.914062 22.433594 26.886719 22.421875 26.863281 22.414062 L 24.945312 14.246094 L 24.953125 14.246094 C 24.953125 14.246094 25.300781 13.410156 25.359375 13.265625 C 25.359375 13.265625 25.519531 12.761719 25.410156 12.558594 C 25.410156 12.558594 25.042969 11.675781 24.445312 11.070312 L 24.429688 11 L 24.609375 11.003906 C 25.214844 11.609375 25.59375 12.515625 25.59375 12.515625 C 25.621094 12.566406 25.632812 12.640625 25.632812 12.714844 C 25.632812 12.941406 25.542969 13.222656 25.542969 13.222656 C 25.492188 13.355469 25.195312 14.058594 25.144531 14.183594 C 25.140625 14.195312 25.136719 14.203125 25.136719 14.203125 L 25.132812 14.203125 L 27.046875 22.371094 C 27.105469 22.390625 27.160156 22.417969 27.21875 22.445312 " fill-opacity="1" fill-rule="nonzero"/><g clip-path="url(#f6824549ec)"><path fill="#36221f" d="M 21.238281 8.972656 L 21.144531 8.878906 L 21.152344 8.976562 C 21.152344 8.976562 20.996094 8.9375 20.902344 8.992188 C 20.804688 9.050781 20.867188 9.046875 20.804688 9.050781 C 20.777344 9.050781 20.757812 9.035156 20.738281 9.019531 C 20.714844 9.003906 20.695312 8.988281 20.664062 8.996094 C 20.601562 9.011719 20.582031 9.089844 20.542969 9.066406 C 20.503906 9.042969 20.4375 8.984375 20.402344 9.023438 C 20.367188 9.0625 20.285156 9.15625 20.285156 9.15625 C 20.285156 9.15625 20.136719 9.015625 20.101562 9.042969 C 20.066406 9.070312 19.980469 9.125 19.980469 9.125 C 19.980469 9.125 19.886719 9.019531 19.839844 9.035156 C 19.789062 9.050781 19.742188 9.128906 19.742188 9.128906 L 19.589844 9.089844 L 19.488281 9.433594 C 19.488281 9.433594 19.566406 9.0625 19.464844 9.070312 C 19.425781 9.074219 19.410156 9.070312 19.402344 9.070312 C 19.394531 9.070312 19.402344 9.066406 19.363281 9.078125 C 19.332031 9.085938 19.300781 9.078125 19.273438 9.070312 C 19.246094 9.0625 19.21875 9.054688 19.199219 9.0625 C 19.164062 9.078125 19.078125 9.121094 19.078125 9.121094 L 18.9375 9.078125 L 18.800781 9.101562 C 18.800781 9.101562 18.695312 9.003906 18.660156 9.035156 C 18.625 9.0625 18.550781 9.089844 18.511719 9.09375 C 18.496094 9.09375 18.460938 9.082031 18.421875 9.070312 C 18.382812 9.058594 18.34375 9.046875 18.324219 9.050781 C 18.285156 9.058594 18.226562 9.101562 18.128906 9.0625 C 18.03125 9.023438 18.007812 9.015625 17.960938 9.074219 C 17.960938 9.074219 17.890625 9.144531 17.835938 9.109375 C 17.785156 9.074219 17.757812 9.027344 17.6875 9.105469 C 17.6875 9.105469 17.601562 9.128906 17.523438 9.0625 C 17.441406 8.996094 17.386719 9.125 17.386719 9.125 C 17.386719 9.125 17.304688 9.03125 17.25 9.121094 C 17.25 9.121094 17.132812 9.089844 17.074219 9.132812 C 17.015625 9.175781 17 9.148438 16.949219 9.140625 C 16.898438 9.132812 16.859375 9.109375 16.824219 9.136719 C 16.789062 9.164062 16.738281 9.191406 16.6875 9.15625 C 16.636719 9.121094 16.5625 9.152344 16.539062 9.167969 C 16.527344 9.171875 16.507812 9.15625 16.484375 9.136719 C 16.460938 9.121094 16.433594 9.101562 16.410156 9.109375 C 16.386719 9.117188 16.355469 9.113281 16.324219 9.109375 C 16.277344 9.101562 16.230469 9.097656 16.207031 9.121094 C 16.175781 9.164062 16.164062 9.203125 16.125 9.179688 C 16.085938 9.15625 16.042969 9.085938 16.007812 9.121094 C 15.972656 9.152344 15.949219 9.191406 15.910156 9.179688 C 15.875 9.171875 15.84375 9.085938 15.808594 9.125 C 15.773438 9.164062 15.710938 9.195312 15.710938 9.195312 C 15.710938 9.195312 15.59375 9.097656 15.558594 9.132812 C 15.523438 9.167969 15.46875 9.296875 15.46875 9.296875 C 15.46875 9.296875 15.417969 9.121094 15.382812 9.136719 C 15.367188 9.144531 15.355469 9.136719 15.34375 9.132812 C 15.328125 9.125 15.316406 9.117188 15.296875 9.140625 C 15.277344 9.160156 15.253906 9.148438 15.226562 9.132812 C 15.195312 9.121094 15.164062 9.105469 15.132812 9.136719 C 15.085938 9.183594 15.109375 9.214844 15.074219 9.214844 C 15.03125 9.167969 14.929688 9.078125 14.90625 9.132812 C 14.90625 9.132812 14.875 9.222656 14.824219 9.222656 C 14.804688 9.226562 14.785156 9.222656 14.765625 9.21875 C 14.738281 9.210938 14.707031 9.203125 14.6875 9.21875 C 14.648438 9.246094 14.640625 9.324219 14.589844 9.3125 C 14.539062 9.304688 14.511719 9.230469 14.429688 9.3125 C 14.429688 9.3125 14.3125 9.242188 14.273438 9.257812 C 14.238281 9.273438 14.238281 9.273438 14.238281 9.273438 C 14.238281 9.273438 15.183594 12.996094 15.210938 13.382812 L 21.410156 13.128906 C 21.410156 13.128906 21.46875 10.429688 21.5625 8.953125 C 21.5625 8.953125 21.386719 8.914062 21.238281 8.972656 " fill-opacity="1" fill-rule="nonzero"/></g><path fill="#924b20" d="M 21.335938 13.128906 L 21.410156 13.128906 C 21.410156 13.128906 21.414062 12.921875 21.421875 12.589844 C 21.414062 12.921875 21.410156 13.128906 21.410156 13.128906 L 21.335938 13.128906 " fill-opacity="1" fill-rule="nonzero"/><g clip-path="url(#e5b314af5d)"><path fill="#452b25" d="M 21.335938 13.128906 L 21.328125 13 L 20.640625 13.042969 C 20.6875 12.972656 20.730469 12.082031 20.734375 11.730469 C 20.738281 11.378906 20.632812 11.285156 20.523438 11.191406 C 20.417969 11.097656 20.410156 10.945312 20.304688 10.851562 C 20.269531 10.824219 20.230469 10.808594 20.179688 10.808594 C 20.070312 10.808594 19.917969 10.882812 19.734375 11.023438 C 19.675781 11.070312 19.632812 11.089844 19.601562 11.089844 C 19.496094 11.089844 19.511719 10.886719 19.375 10.839844 C 19.347656 10.832031 19.320312 10.828125 19.296875 10.828125 C 19.25 10.828125 19.207031 10.84375 19.167969 10.859375 C 19.125 10.875 19.089844 10.890625 19.046875 10.890625 C 19.023438 10.890625 18.996094 10.882812 18.964844 10.867188 C 18.851562 10.796875 18.71875 10.699219 18.59375 10.699219 C 18.566406 10.699219 18.539062 10.703125 18.515625 10.714844 C 18.367188 10.773438 18.300781 10.902344 18.171875 10.917969 C 18.167969 10.917969 18.164062 10.917969 18.164062 10.917969 C 18.105469 10.917969 18.054688 10.855469 18.003906 10.792969 C 17.953125 10.730469 17.902344 10.667969 17.851562 10.667969 C 17.835938 10.667969 17.824219 10.671875 17.8125 10.683594 C 17.691406 10.765625 17.597656 10.898438 17.492188 10.953125 C 17.480469 10.957031 17.472656 10.960938 17.464844 10.960938 C 17.417969 10.960938 17.359375 10.898438 17.304688 10.835938 C 17.246094 10.773438 17.1875 10.707031 17.132812 10.707031 C 17.125 10.707031 17.117188 10.710938 17.109375 10.710938 C 17.09375 10.71875 17.070312 10.71875 17.042969 10.71875 C 16.980469 10.71875 16.890625 10.710938 16.792969 10.699219 C 16.699219 10.6875 16.597656 10.675781 16.511719 10.675781 C 16.414062 10.675781 16.339844 10.691406 16.308594 10.734375 C 16.292969 10.757812 16.28125 10.765625 16.265625 10.765625 C 16.199219 10.765625 16.152344 10.519531 16.066406 10.441406 C 16.054688 10.429688 16.039062 10.425781 16.03125 10.425781 C 15.953125 10.425781 15.917969 10.683594 15.835938 10.757812 C 15.828125 10.761719 15.824219 10.765625 15.816406 10.765625 C 15.71875 10.765625 15.570312 10.21875 15.496094 10.175781 C 15.496094 10.171875 15.492188 10.171875 15.488281 10.171875 C 15.40625 10.171875 15.246094 10.644531 15.125 10.660156 C 15.117188 10.664062 15.109375 10.664062 15.101562 10.664062 C 15 10.664062 14.976562 10.558594 14.769531 10.546875 C 14.765625 10.546875 14.761719 10.546875 14.757812 10.546875 C 14.691406 10.546875 14.628906 10.574219 14.574219 10.609375 C 14.394531 9.886719 14.246094 9.296875 14.238281 9.273438 C 14.238281 9.273438 14.238281 9.273438 14.273438 9.257812 C 14.277344 9.257812 14.28125 9.257812 14.289062 9.257812 C 14.332031 9.257812 14.429688 9.3125 14.429688 9.3125 C 14.457031 9.285156 14.480469 9.273438 14.5 9.273438 C 14.535156 9.273438 14.558594 9.308594 14.589844 9.3125 C 14.59375 9.316406 14.597656 9.316406 14.601562 9.316406 C 14.644531 9.316406 14.652344 9.246094 14.6875 9.21875 C 14.695312 9.210938 14.707031 9.210938 14.71875 9.210938 C 14.734375 9.210938 14.75 9.214844 14.765625 9.21875 C 14.785156 9.21875 14.800781 9.222656 14.816406 9.222656 C 14.820312 9.222656 14.820312 9.222656 14.824219 9.222656 C 14.875 9.222656 14.90625 9.132812 14.90625 9.132812 C 14.910156 9.121094 14.921875 9.117188 14.933594 9.117188 C 14.972656 9.117188 15.039062 9.179688 15.074219 9.214844 C 15.109375 9.214844 15.085938 9.183594 15.132812 9.136719 C 15.144531 9.121094 15.160156 9.117188 15.171875 9.117188 C 15.191406 9.117188 15.210938 9.125 15.226562 9.132812 C 15.242188 9.144531 15.261719 9.152344 15.273438 9.152344 C 15.28125 9.152344 15.289062 9.148438 15.296875 9.140625 C 15.304688 9.128906 15.3125 9.125 15.320312 9.125 C 15.328125 9.125 15.335938 9.128906 15.34375 9.132812 C 15.351562 9.136719 15.359375 9.140625 15.367188 9.140625 C 15.371094 9.140625 15.378906 9.140625 15.382812 9.136719 C 15.382812 9.136719 15.386719 9.136719 15.386719 9.136719 C 15.421875 9.136719 15.46875 9.296875 15.46875 9.296875 C 15.46875 9.296875 15.523438 9.167969 15.558594 9.132812 C 15.5625 9.125 15.570312 9.125 15.578125 9.125 C 15.628906 9.125 15.710938 9.195312 15.710938 9.195312 C 15.710938 9.195312 15.773438 9.164062 15.808594 9.125 C 15.816406 9.117188 15.820312 9.113281 15.828125 9.113281 C 15.855469 9.113281 15.878906 9.171875 15.910156 9.179688 C 15.917969 9.183594 15.921875 9.183594 15.925781 9.183594 C 15.957031 9.183594 15.976562 9.148438 16.007812 9.121094 C 16.015625 9.113281 16.023438 9.113281 16.027344 9.113281 C 16.058594 9.113281 16.09375 9.160156 16.125 9.179688 C 16.132812 9.183594 16.140625 9.1875 16.144531 9.1875 C 16.167969 9.1875 16.179688 9.15625 16.207031 9.121094 C 16.21875 9.109375 16.242188 9.105469 16.265625 9.105469 C 16.28125 9.105469 16.304688 9.105469 16.324219 9.109375 C 16.34375 9.113281 16.363281 9.113281 16.378906 9.113281 C 16.390625 9.113281 16.402344 9.113281 16.410156 9.109375 C 16.414062 9.109375 16.417969 9.109375 16.421875 9.109375 C 16.441406 9.109375 16.464844 9.125 16.484375 9.136719 C 16.503906 9.152344 16.519531 9.167969 16.53125 9.167969 C 16.535156 9.167969 16.535156 9.167969 16.539062 9.167969 C 16.554688 9.15625 16.589844 9.140625 16.628906 9.140625 C 16.648438 9.140625 16.667969 9.144531 16.6875 9.15625 C 16.703125 9.167969 16.722656 9.171875 16.738281 9.171875 C 16.769531 9.171875 16.800781 9.15625 16.824219 9.136719 C 16.835938 9.125 16.847656 9.121094 16.863281 9.121094 C 16.890625 9.121094 16.917969 9.132812 16.949219 9.140625 C 16.980469 9.144531 16.996094 9.15625 17.015625 9.15625 C 17.03125 9.15625 17.046875 9.152344 17.074219 9.132812 C 17.097656 9.117188 17.132812 9.109375 17.164062 9.109375 C 17.207031 9.109375 17.25 9.121094 17.25 9.121094 C 17.269531 9.09375 17.289062 9.082031 17.308594 9.082031 C 17.351562 9.082031 17.386719 9.125 17.386719 9.125 C 17.386719 9.125 17.421875 9.042969 17.476562 9.042969 C 17.488281 9.042969 17.503906 9.050781 17.523438 9.0625 C 17.570312 9.101562 17.621094 9.109375 17.652344 9.109375 C 17.671875 9.109375 17.6875 9.105469 17.6875 9.105469 C 17.714844 9.074219 17.734375 9.0625 17.753906 9.0625 C 17.785156 9.0625 17.804688 9.089844 17.835938 9.109375 C 17.847656 9.117188 17.859375 9.121094 17.871094 9.121094 C 17.914062 9.121094 17.960938 9.074219 17.960938 9.074219 C 17.984375 9.042969 18.003906 9.03125 18.027344 9.03125 C 18.050781 9.03125 18.082031 9.042969 18.128906 9.0625 C 18.15625 9.074219 18.183594 9.078125 18.207031 9.078125 C 18.257812 9.078125 18.296875 9.054688 18.324219 9.050781 C 18.324219 9.050781 18.328125 9.050781 18.332031 9.050781 C 18.351562 9.050781 18.386719 9.0625 18.421875 9.070312 C 18.457031 9.082031 18.492188 9.09375 18.511719 9.09375 C 18.550781 9.089844 18.625 9.0625 18.660156 9.035156 C 18.664062 9.03125 18.671875 9.027344 18.675781 9.027344 C 18.722656 9.027344 18.800781 9.101562 18.800781 9.101562 L 18.9375 9.078125 L 19.078125 9.121094 C 19.078125 9.121094 19.164062 9.078125 19.199219 9.0625 C 19.207031 9.058594 19.210938 9.058594 19.21875 9.058594 C 19.234375 9.058594 19.253906 9.066406 19.273438 9.070312 C 19.292969 9.074219 19.3125 9.082031 19.335938 9.082031 C 19.347656 9.082031 19.355469 9.078125 19.363281 9.078125 C 19.386719 9.070312 19.394531 9.070312 19.398438 9.070312 C 19.398438 9.070312 19.398438 9.070312 19.402344 9.070312 C 19.40625 9.070312 19.414062 9.074219 19.425781 9.074219 C 19.433594 9.074219 19.449219 9.070312 19.464844 9.070312 C 19.464844 9.070312 19.464844 9.070312 19.46875 9.070312 C 19.503906 9.070312 19.515625 9.125 19.515625 9.191406 C 19.515625 9.296875 19.488281 9.433594 19.488281 9.433594 L 19.589844 9.089844 L 19.742188 9.128906 C 19.742188 9.128906 19.789062 9.050781 19.839844 9.035156 C 19.84375 9.035156 19.84375 9.03125 19.847656 9.03125 C 19.898438 9.03125 19.980469 9.125 19.980469 9.125 C 19.980469 9.125 20.066406 9.070312 20.101562 9.042969 C 20.105469 9.039062 20.109375 9.039062 20.113281 9.039062 C 20.164062 9.039062 20.285156 9.15625 20.285156 9.15625 C 20.285156 9.15625 20.367188 9.0625 20.402344 9.023438 C 20.410156 9.015625 20.421875 9.011719 20.433594 9.011719 C 20.46875 9.011719 20.511719 9.046875 20.542969 9.066406 C 20.546875 9.070312 20.550781 9.070312 20.554688 9.070312 C 20.585938 9.070312 20.609375 9.011719 20.664062 8.996094 C 20.667969 8.992188 20.675781 8.992188 20.679688 8.992188 C 20.703125 8.992188 20.71875 9.007812 20.738281 9.019531 C 20.753906 9.035156 20.773438 9.050781 20.800781 9.050781 C 20.800781 9.050781 20.804688 9.050781 20.804688 9.050781 C 20.867188 9.046875 20.804688 9.050781 20.902344 8.992188 C 20.941406 8.96875 20.988281 8.964844 21.035156 8.964844 C 21.097656 8.964844 21.152344 8.976562 21.152344 8.976562 L 21.144531 8.878906 L 21.238281 8.972656 C 21.300781 8.945312 21.371094 8.9375 21.429688 8.9375 C 21.503906 8.9375 21.5625 8.953125 21.5625 8.953125 C 21.492188 10.019531 21.445312 11.730469 21.421875 12.589844 C 21.414062 12.921875 21.410156 13.128906 21.410156 13.128906 L 21.335938 13.128906 " fill-opacity="1" fill-rule="nonzero"/></g><path fill="#9d6530" d="M 18.664062 22.527344 C 18.652344 22.375 18.75 22.25 18.878906 22.242188 C 19.003906 22.234375 19.117188 22.347656 19.125 22.496094 L 19.167969 23.183594 C 19.179688 23.332031 19.082031 23.460938 18.953125 23.46875 C 18.824219 23.476562 18.714844 23.363281 18.707031 23.210938 L 18.664062 22.527344 M 18.019531 22.550781 C 18.023438 22.84375 18.433594 23.550781 18.433594 23.550781 C 18.542969 23.816406 18.796875 24.023438 19 24.011719 C 19.203125 23.996094 19.417969 23.757812 19.480469 23.472656 C 19.480469 23.472656 19.796875 22.734375 19.765625 22.441406 L 19.382812 19.144531 L 17.992188 19.230469 L 18.019531 22.550781 " fill-opacity="1" fill-rule="nonzero"/><path fill="#8f592a" d="M 19.765625 22.445312 L 19.117188 22.445312 C 19.089844 22.328125 18.996094 22.238281 18.890625 22.238281 C 18.886719 22.238281 18.882812 22.238281 18.878906 22.242188 L 18.742188 20.0625 L 18 20.085938 L 17.992188 19.230469 L 17.992188 19.394531 L 19.402344 19.304688 L 19.382812 19.144531 L 19.5 20.152344 L 19.765625 22.441406 C 19.765625 22.445312 19.765625 22.445312 19.765625 22.445312 " fill-opacity="1" fill-rule="nonzero"/><path fill="#a7bcd9" d="M 15.296875 13.378906 L 15.445312 15.777344 C 15.464844 16.070312 15.679688 16.363281 15.921875 16.429688 C 15.921875 16.429688 17.914062 16.878906 17.96875 16.882812 L 17.992188 19.394531 L 19.402344 19.304688 L 19.113281 16.8125 C 19.164062 16.800781 21.085938 16.105469 21.085938 16.105469 C 21.320312 16.007812 21.496094 15.691406 21.476562 15.398438 L 21.328125 13 L 15.296875 13.378906 " fill-opacity="1" fill-rule="nonzero"/><path fill="#c2c9d4" d="M 19.332031 18.691406 L 19.113281 16.8125 L 19.332031 18.691406 " fill-opacity="1" fill-rule="nonzero"/><path fill="#90a7c2" d="M 19.332031 18.691406 L 18.742188 18.59375 C 18.742188 18.59375 18.6875 16.804688 18.757812 16.726562 C 18.828125 16.644531 20.566406 16.160156 20.578125 16.042969 C 20.589844 15.929688 20.535156 15.339844 20.535156 15.339844 L 21.464844 15.183594 L 21.476562 15.398438 C 21.476562 15.410156 21.476562 15.425781 21.476562 15.4375 C 21.476562 15.71875 21.308594 16.011719 21.085938 16.105469 C 21.085938 16.105469 19.164062 16.800781 19.113281 16.8125 L 19.332031 18.691406 " fill-opacity="1" fill-rule="nonzero"/><path fill="#85a0c0" d="M 21.457031 15.046875 L 15.425781 15.425781 L 15.4375 15.660156 L 21.46875 15.28125 L 21.457031 15.046875 " fill-opacity="1" fill-rule="nonzero"/><path fill="#c1d5ed" d="M 19.316406 18.558594 L 17.984375 18.640625 L 17.996094 19.820312 L 19.449219 19.730469 L 19.316406 18.558594 " fill-opacity="1" fill-rule="nonzero"/><path fill="#87abd5" d="M 19.34375 18.816406 L 19.316406 18.558594 L 17.984375 18.640625 L 17.988281 18.902344 L 19.34375 18.816406 " fill-opacity="1" fill-rule="nonzero"/><path fill="#dceaf5" d="M 19.445312 18.558594 C 19.449219 18.613281 19.40625 18.664062 19.351562 18.667969 L 17.964844 18.753906 C 17.90625 18.757812 17.859375 18.714844 17.855469 18.65625 C 17.851562 18.601562 17.894531 18.550781 17.949219 18.546875 L 19.335938 18.460938 C 19.394531 18.457031 19.441406 18.5 19.445312 18.558594 " fill-opacity="1" fill-rule="nonzero"/><path fill="#dceaf5" d="M 19.519531 19.722656 C 19.523438 19.78125 19.480469 19.832031 19.421875 19.835938 L 18.035156 19.921875 C 17.980469 19.925781 17.929688 19.882812 17.925781 19.824219 C 17.925781 19.765625 17.96875 19.71875 18.023438 19.714844 L 19.410156 19.628906 C 19.464844 19.625 19.515625 19.667969 19.519531 19.722656 " fill-opacity="1" fill-rule="nonzero"/><path fill="#c1d5ed" d="M 21.542969 15.046875 L 15.335938 15.4375 L 15.210938 13.386719 L 21.414062 12.996094 L 21.542969 15.046875 " fill-opacity="1" fill-rule="nonzero"/><path fill="#87abd5" d="M 15.257812 14.15625 L 21.460938 13.765625 L 21.453125 13.613281 L 15.246094 14 L 15.257812 14.15625 " fill-opacity="1" fill-rule="nonzero"/><path fill="#87abd5" d="M 15.292969 14.710938 L 21.496094 14.320312 L 21.488281 14.167969 L 15.28125 14.558594 L 15.292969 14.710938 " fill-opacity="1" fill-rule="nonzero"/><path fill="#87abd5" d="M 21.429688 13.257812 L 21.414062 12.996094 L 15.210938 13.386719 L 15.226562 13.648438 L 21.429688 13.257812 " fill-opacity="1" fill-rule="nonzero"/><path fill="#dceaf5" d="M 21.667969 15.035156 C 21.667969 15.070312 21.640625 15.105469 21.601562 15.105469 L 15.308594 15.503906 C 15.273438 15.503906 15.238281 15.476562 15.238281 15.4375 C 15.234375 15.398438 15.265625 15.367188 15.300781 15.363281 L 21.59375 14.96875 C 21.632812 14.96875 21.664062 14.996094 21.667969 15.035156 " fill-opacity="1" fill-rule="nonzero"/><path fill="#dceaf5" d="M 21.613281 14.167969 C 21.617188 14.203125 21.585938 14.238281 21.550781 14.238281 L 15.257812 14.636719 C 15.21875 14.636719 15.183594 14.609375 15.183594 14.570312 C 15.179688 14.53125 15.210938 14.5 15.246094 14.496094 L 21.539062 14.101562 C 21.578125 14.101562 21.609375 14.128906 21.613281 14.167969 " fill-opacity="1" fill-rule="nonzero"/><path fill="#dceaf5" d="M 21.566406 13.605469 C 21.566406 13.640625 21.539062 13.675781 21.5 13.675781 L 15.207031 14.074219 C 15.171875 14.074219 15.136719 14.046875 15.136719 14.007812 C 15.132812 13.96875 15.160156 13.9375 15.199219 13.933594 L 21.492188 13.539062 C 21.53125 13.539062 21.5625 13.566406 21.566406 13.605469 " fill-opacity="1" fill-rule="nonzero"/><path fill="#dceaf5" d="M 21.539062 12.988281 C 21.542969 13.023438 21.511719 13.058594 21.476562 13.058594 L 15.183594 13.457031 C 15.144531 13.457031 15.113281 13.429688 15.109375 13.390625 C 15.105469 13.351562 15.136719 13.320312 15.171875 13.316406 L 21.464844 12.921875 C 21.503906 12.921875 21.535156 12.949219 21.539062 12.988281 " fill-opacity="1" fill-rule="nonzero"/><path fill="#87abd5" d="M 17.945312 14.921875 C 17.949219 14.972656 17.910156 15.015625 17.863281 15.019531 C 17.8125 15.023438 17.769531 14.984375 17.765625 14.933594 C 17.761719 14.882812 17.800781 14.839844 17.851562 14.835938 C 17.902344 14.832031 17.945312 14.871094 17.945312 14.921875 " fill-opacity="1" fill-rule="nonzero"/><path fill="#dceaf5" d="M 17.945312 14.875 C 17.945312 14.925781 17.910156 14.96875 17.859375 14.972656 C 17.808594 14.976562 17.765625 14.9375 17.761719 14.886719 C 17.761719 14.835938 17.796875 14.792969 17.847656 14.789062 C 17.898438 14.785156 17.941406 14.824219 17.945312 14.875 " fill-opacity="1" fill-rule="nonzero"/><path fill="#87abd5" d="M 18.507812 14.886719 C 18.511719 14.9375 18.472656 14.980469 18.425781 14.984375 C 18.375 14.984375 18.332031 14.949219 18.328125 14.898438 C 18.324219 14.847656 18.363281 14.804688 18.414062 14.800781 C 18.460938 14.796875 18.503906 14.835938 18.507812 14.886719 " fill-opacity="1" fill-rule="nonzero"/><path fill="#dceaf5" d="M 18.503906 14.839844 C 18.507812 14.890625 18.472656 14.933594 18.421875 14.9375 C 18.371094 14.9375 18.328125 14.902344 18.324219 14.851562 C 18.320312 14.800781 18.359375 14.757812 18.410156 14.753906 C 18.460938 14.75 18.503906 14.789062 18.503906 14.839844 " fill-opacity="1" fill-rule="nonzero"/><path fill="#87abd5" d="M 19.070312 14.851562 C 19.074219 14.902344 19.035156 14.945312 18.984375 14.949219 C 18.9375 14.949219 18.894531 14.914062 18.890625 14.863281 C 18.886719 14.8125 18.925781 14.769531 18.972656 14.765625 C 19.023438 14.761719 19.066406 14.800781 19.070312 14.851562 " fill-opacity="1" fill-rule="nonzero"/><path fill="#dceaf5" d="M 19.066406 14.804688 C 19.070312 14.855469 19.03125 14.898438 18.984375 14.902344 C 18.933594 14.902344 18.890625 14.867188 18.886719 14.816406 C 18.882812 14.765625 18.921875 14.722656 18.972656 14.71875 C 19.023438 14.714844 19.0625 14.753906 19.066406 14.804688 " fill-opacity="1" fill-rule="nonzero"/><g clip-path="url(#28abd9f335)"><path fill="#a7bcd9" d="M 12.929688 8.933594 L 12.488281 9.015625 L 12.496094 9.816406 L 12.78125 10.566406 L 14.171875 17.964844 L 14.613281 17.878906 L 13.222656 10.484375 L 13.214844 9.683594 L 12.929688 8.933594 " fill-opacity="1" fill-rule="nonzero"/></g><path fill="#ef332b" d="M 13.636719 17.847656 L 13.675781 18.042969 L 14.003906 18.75 L 14.535156 18.652344 L 15.070312 18.550781 L 15.117188 17.769531 L 15.082031 17.574219 L 13.636719 17.847656 " fill-opacity="1" fill-rule="nonzero"/><path fill="#ef332b" d="M 15.085938 18.546875 L 14.535156 18.652344 L 13.984375 18.753906 C 13.984375 18.753906 14.40625 23.375 14.59375 24.046875 C 14.785156 24.71875 15.167969 24.8125 15.167969 24.8125 L 16.183594 24.617188 C 16.183594 24.617188 16.507812 24.394531 16.441406 23.699219 C 16.375 23.003906 15.085938 18.546875 15.085938 18.546875 " fill-opacity="1" fill-rule="nonzero"/><path fill="#d62825" d="M 14.78125 18.605469 C 14.878906 18.921875 16.21875 23.382812 14.808594 24.519531 C 14.984375 24.765625 15.167969 24.8125 15.167969 24.8125 L 16.183594 24.617188 C 16.183594 24.617188 16.507812 24.394531 16.441406 23.699219 C 16.375 23.003906 15.085938 18.546875 15.085938 18.546875 L 14.78125 18.605469 " fill-opacity="1" fill-rule="nonzero"/><path fill="#d62825" d="M 14.027344 19.214844 L 15.214844 18.988281 C 15.136719 18.714844 15.085938 18.546875 15.085938 18.546875 L 14.535156 18.652344 L 13.984375 18.753906 C 13.984375 18.753906 14 18.929688 14.027344 19.214844 " fill-opacity="1" fill-rule="nonzero"/><path fill="#ef332b" d="M 15.253906 18.496094 C 15.269531 18.566406 15.222656 18.636719 15.152344 18.648438 L 13.964844 18.875 C 13.890625 18.886719 13.824219 18.839844 13.808594 18.769531 C 13.796875 18.699219 13.84375 18.628906 13.914062 18.617188 L 15.101562 18.390625 C 15.171875 18.378906 15.242188 18.425781 15.253906 18.496094 " fill-opacity="1" fill-rule="nonzero"/><g clip-path="url(#8b09734c18)"><path fill="#90a7c2" d="M 14.351562 17.710938 L 12.707031 8.976562 L 12.929688 8.933594 L 13.214844 9.683594 L 13.222656 10.484375 L 14.574219 17.671875 L 14.351562 17.710938 " fill-opacity="1" fill-rule="nonzero"/></g><path fill="#c05c54" d="M 14.390625 17.921875 L 14.351562 17.710938 L 14.574219 17.671875 L 14.613281 17.878906 L 14.390625 17.921875 " fill-opacity="1" fill-rule="nonzero"/><path fill="#d62825" d="M 13.675781 18.042969 L 13.679688 18.054688 L 15.117188 17.785156 L 15.117188 17.769531 L 15.082031 17.574219 L 13.636719 17.847656 L 13.675781 18.042969 " fill-opacity="1" fill-rule="nonzero"/><path fill="#a7bcd9" d="M 9.777344 13.226562 L 9.625 14.183594 L 10.613281 14.335938 L 10.800781 13.152344 L 9.777344 13.226562 " fill-opacity="1" fill-rule="nonzero"/><path fill="#a7bcd9" d="M 9.386719 14.804688 L 10.710938 14.984375 L 10.808594 14.113281 L 9.507812 13.90625 L 9.386719 14.804688 " fill-opacity="1" fill-rule="nonzero"/><path fill="#a7bcd9" d="M 10.824219 13.351562 L 11.109375 14.273438 L 10.15625 14.570312 L 9.800781 13.425781 L 10.824219 13.351562 " fill-opacity="1" fill-rule="nonzero"/><path fill="#a7bcd9" d="M 11.429688 14.761719 L 10.167969 15.152344 L 9.929688 14.378906 L 11.1875 13.988281 L 11.429688 14.761719 " fill-opacity="1" fill-rule="nonzero"/><path fill="#ef332b" d="M 9.980469 15.042969 L 11.625 14.535156 L 11.816406 15.160156 C 11.816406 15.160156 11.554688 15.339844 11.648438 15.648438 C 11.648438 15.648438 13.035156 19.066406 13.246094 19.8125 C 13.246094 19.8125 13.359375 20.015625 13.390625 20.269531 C 13.492188 21.121094 13.941406 24.457031 13.863281 24.664062 L 12.960938 24.945312 C 12.960938 24.945312 12.722656 24.808594 12.683594 24.636719 C 12.648438 24.46875 12.207031 20.484375 12.15625 20.316406 C 11.890625 19.449219 10.589844 15.972656 10.179688 15.683594 L 9.980469 15.042969 " fill-opacity="1" fill-rule="nonzero"/><path fill="#a7bcd9" d="M 9.289062 10.484375 L 9.574219 10.652344 L 9.945312 12.164062 C 9.945312 12.164062 9.597656 12.304688 9.679688 12.644531 C 9.785156 13.085938 10.148438 12.996094 10.148438 12.996094 L 10.296875 13.59375 L 9.675781 13.746094 L 8.914062 13.105469 C 8.914062 13.105469 8.878906 11.960938 9.289062 10.484375 " fill-opacity="1" fill-rule="nonzero"/><path fill="#a7bcd9" d="M 10.847656 10.371094 L 10.585938 10.578125 L 10.4375 12.128906 C 10.4375 12.128906 10.800781 12.21875 10.769531 12.566406 C 10.726562 13.015625 10.355469 12.980469 10.355469 12.980469 L 10.296875 13.59375 L 10.933594 13.65625 L 11.59375 12.914062 C 11.59375 12.914062 11.460938 11.773438 10.847656 10.371094 " fill-opacity="1" fill-rule="nonzero"/><path fill="#8ba6c8" d="M 10.933594 13.65625 L 11.59375 12.914062 C 11.59375 12.914062 11.460938 11.773438 10.847656 10.371094 L 10.757812 10.441406 C 10.863281 10.960938 11.214844 12.949219 10.601562 13.492188 C 10.554688 13.535156 10.515625 13.574219 10.480469 13.613281 L 10.933594 13.65625 " fill-opacity="1" fill-rule="nonzero"/><path fill="#cbe1f5" d="M 10.808594 13.527344 C 10.828125 13.800781 10.621094 14.039062 10.347656 14.058594 C 10.074219 14.078125 9.839844 13.871094 9.816406 13.597656 C 9.796875 13.324219 10.003906 13.085938 10.277344 13.066406 C 10.550781 13.046875 10.789062 13.253906 10.808594 13.527344 " fill-opacity="1" fill-rule="nonzero"/><path fill="#ef332b" d="M 10.765625 15.640625 C 10.398438 15.988281 9.613281 19.617188 9.472656 20.511719 C 9.445312 20.683594 9.585938 24.691406 9.570312 24.863281 C 9.558594 25.039062 9.339844 25.207031 9.339844 25.207031 L 8.40625 25.058594 C 8.300781 24.867188 8.265625 21.5 8.246094 20.644531 C 8.242188 20.386719 8.320312 20.167969 8.320312 20.167969 C 8.425781 19.402344 9.304688 15.820312 9.304688 15.820312 C 9.351562 15.5 9.066406 15.359375 9.066406 15.359375 L 9.167969 14.710938 L 10.867188 14.980469 L 10.765625 15.640625 " fill-opacity="1" fill-rule="nonzero"/><path fill="#c32424" d="M 9.847656 17.242188 C 9.585938 17.804688 8.847656 20.882812 8.847656 20.882812 L 8.886719 25.132812 L 9.339844 25.207031 C 9.339844 25.207031 9.558594 25.039062 9.570312 24.863281 C 9.585938 24.691406 9.445312 20.683594 9.472656 20.511719 C 9.582031 19.804688 10.097656 17.398438 10.488281 16.242188 C 10.488281 16.242188 10.105469 16.679688 9.847656 17.242188 " fill-opacity="1" fill-rule="nonzero"/><path fill="#c32424" d="M 12.617188 20.160156 C 11.867188 17.738281 10.902344 16.640625 10.589844 16.335938 C 11.140625 17.457031 11.953125 19.652344 12.15625 20.316406 C 12.207031 20.484375 12.648438 24.46875 12.683594 24.636719 C 12.722656 24.808594 12.960938 24.945312 12.960938 24.945312 L 13.335938 24.828125 L 12.617188 20.160156 " fill-opacity="1" fill-rule="nonzero"/><path fill="#ef332b" d="M 10.316406 23.210938 L 9.6875 23.652344 C 9.589844 23.722656 9.453125 23.699219 9.386719 23.597656 C 9.316406 23.5 9.339844 23.363281 9.4375 23.296875 L 10.066406 22.855469 C 10.167969 22.785156 10.300781 22.808594 10.371094 22.910156 C 10.441406 23.007812 10.414062 23.144531 10.316406 23.210938 Z M 5.804688 19.246094 L 8.875 24.007812 C 9.0625 24.277344 9.429688 24.339844 9.695312 24.152344 L 10.785156 23.390625 C 11.050781 23.203125 11.117188 22.835938 10.929688 22.566406 L 7.523438 18.042969 L 5.804688 19.246094 " fill-opacity="1" fill-rule="nonzero"/><path fill="#d62825" d="M 10.316406 23.210938 L 9.6875 23.652344 C 9.589844 23.722656 9.453125 23.699219 9.386719 23.597656 C 9.316406 23.5 9.339844 23.363281 9.4375 23.296875 L 10.066406 22.855469 C 10.167969 22.785156 10.300781 22.808594 10.371094 22.910156 C 10.441406 23.007812 10.414062 23.144531 10.316406 23.210938 Z M 7.121094 18.324219 C 8.015625 19.488281 9.304688 21.601562 8.332031 23.164062 L 8.875 24.007812 C 9.0625 24.277344 9.429688 24.339844 9.695312 24.152344 L 10.785156 23.390625 C 11.050781 23.203125 11.117188 22.835938 10.929688 22.566406 L 7.523438 18.042969 L 7.121094 18.324219 " fill-opacity="1" fill-rule="nonzero"/><path fill="#ae1d23" d="M 7.597656 18.140625 L 5.875 19.347656 L 6.28125 19.984375 L 8.050781 18.742188 L 7.597656 18.140625 " fill-opacity="1" fill-rule="nonzero"/><g clip-path="url(#37da8f8126)"><path fill="#8ba6c8" d="M 2.355469 12.445312 L 0.132812 14.007812 L 5.742188 19.0625 L 7.390625 17.90625 L 4.582031 10.886719 L 2.355469 12.445312 " fill-opacity="1" fill-rule="nonzero"/></g><path fill="#7492b4" d="M 3.902344 11.363281 C 4.574219 12.667969 6.183594 16.234375 4.886719 18.292969 L 5.742188 19.0625 L 7.390625 17.90625 L 4.582031 10.886719 L 3.902344 11.363281 " fill-opacity="1" fill-rule="nonzero"/><path fill="#ef332b" d="M 7.84375 18.121094 L 5.789062 19.5625 L 5.453125 19.085938 L 7.511719 17.644531 L 7.84375 18.121094 " fill-opacity="1" fill-rule="nonzero"/><path fill="#d62825" d="M 5.644531 19.355469 L 5.789062 19.5625 L 7.84375 18.121094 L 7.699219 17.917969 L 5.644531 19.355469 " fill-opacity="1" fill-rule="nonzero"/><path fill="#9d6530" d="M 30.3125 22.347656 C 30.230469 22.5 30.289062 22.683594 30.441406 22.765625 L 31.457031 23.304688 C 31.605469 23.382812 31.792969 23.324219 31.871094 23.175781 L 37.324219 12.839844 C 37.40625 12.6875 37.347656 12.5 37.195312 12.421875 L 36.179688 11.882812 C 36.03125 11.800781 35.84375 11.859375 35.765625 12.011719 L 30.3125 22.347656 " fill-opacity="1" fill-rule="nonzero"/><path fill="#905928" d="M 32.257812 22.445312 L 30.28125 22.445312 C 30.285156 22.410156 30.296875 22.378906 30.3125 22.347656 L 30.65625 21.695312 C 32.542969 20.855469 36.066406 14.347656 37.101562 12.371094 L 37.195312 12.421875 C 37.300781 12.476562 37.359375 12.582031 37.359375 12.695312 C 37.359375 12.742188 37.347656 12.792969 37.324219 12.839844 L 32.257812 22.445312 " fill-opacity="1" fill-rule="nonzero"/><path fill="#5a7896" d="M 37.828125 13.296875 L 35.261719 11.9375 L 36.347656 9.882812 L 38.910156 11.246094 L 37.828125 13.296875 " fill-opacity="1" fill-rule="nonzero"/><path fill="#a7bcd9" d="M 37.429688 12.988281 C 37.347656 13.140625 37.152344 13.203125 37 13.121094 L 35.738281 12.453125 C 35.585938 12.371094 35.527344 12.175781 35.605469 12.019531 L 36.597656 10.144531 C 36.679688 9.988281 36.871094 9.929688 37.027344 10.011719 L 38.285156 10.679688 C 38.441406 10.761719 38.5 10.953125 38.417969 11.109375 L 37.429688 12.988281 " fill-opacity="1" fill-rule="nonzero"/><g clip-path="url(#b83396e64b)"><path fill="#a7bcd9" d="M 39.574219 13.789062 C 39.492188 13.945312 39.289062 14.023438 39.125 13.964844 L 37.800781 13.492188 C 37.636719 13.433594 37.570312 13.261719 37.652344 13.105469 L 38.640625 11.226562 C 38.722656 11.074219 38.90625 11.03125 39.046875 11.132812 L 40.179688 11.964844 C 40.320312 12.066406 40.371094 12.28125 40.289062 12.433594 L 39.574219 13.789062 " fill-opacity="1" fill-rule="nonzero"/></g><path fill="#a7bcd9" d="M 33.976562 10.335938 C 33.894531 10.488281 33.921875 10.722656 34.042969 10.851562 L 35.058594 11.96875 C 35.175781 12.097656 35.339844 12.078125 35.421875 11.921875 L 36.410156 10.042969 C 36.492188 9.890625 36.417969 9.742188 36.246094 9.71875 L 34.753906 9.503906 C 34.578125 9.480469 34.371094 9.585938 34.289062 9.742188 L 33.976562 10.335938 " fill-opacity="1" fill-rule="nonzero"/><path fill="#86a1c2" d="M 36.410156 10.042969 C 36.460938 9.953125 36.453125 9.867188 36.40625 9.804688 C 36.144531 10.308594 35.386719 11.355469 33.9375 10.457031 C 33.914062 10.59375 33.953125 10.753906 34.042969 10.851562 L 35.058594 11.96875 C 35.175781 12.097656 35.339844 12.078125 35.421875 11.921875 L 36.410156 10.042969 " fill-opacity="1" fill-rule="nonzero"/><path fill="#86a1c2" d="M 35.738281 12.453125 L 37 13.121094 C 37.152344 13.203125 37.347656 13.140625 37.429688 12.988281 L 38.417969 11.109375 C 38.46875 11.015625 38.464844 10.910156 38.425781 10.824219 C 37.414062 12.191406 36.253906 11.5625 35.953125 11.363281 L 35.605469 12.019531 C 35.523438 12.175781 35.585938 12.371094 35.738281 12.453125 " fill-opacity="1" fill-rule="nonzero"/><g clip-path="url(#d9b244df87)"><path fill="#86a1c2" d="M 39.574219 13.789062 L 40.289062 12.433594 C 40.34375 12.332031 40.339844 12.203125 40.289062 12.097656 C 39.585938 13.113281 38.390625 12.609375 38.015625 12.414062 L 37.652344 13.105469 C 37.570312 13.261719 37.636719 13.433594 37.800781 13.492188 L 39.125 13.964844 C 39.289062 14.023438 39.492188 13.945312 39.574219 13.789062 " fill-opacity="1" fill-rule="nonzero"/></g><path fill="#6d301b" d="M 32.835938 31.304688 L 7.398438 31.304688 L 7.398438 23.722656 L 32.835938 23.722656 L 32.835938 31.304688 " fill-opacity="1" fill-rule="nonzero"/><path fill="#944a1c" d="M 32.835938 33.992188 L 7.398438 33.992188 L 7.398438 30.378906 L 32.835938 30.378906 L 32.835938 33.992188 " fill-opacity="1" fill-rule="nonzero"/><path fill="#813b19" d="M 7.398438 32.183594 L 7.398438 33.992188 L 32.835938 33.992188 L 32.835938 32.183594 L 7.398438 32.183594 " fill-opacity="1" fill-rule="nonzero"/><path fill="#944a1c" d="M 32.835938 30.027344 L 7.398438 30.027344 L 7.398438 26.410156 L 32.835938 26.410156 L 32.835938 30.027344 " fill-opacity="1" fill-rule="nonzero"/><path fill="#944a1c" d="M 32.835938 30.027344 L 7.398438 30.027344 L 7.398438 26.410156 L 32.835938 26.410156 L 32.835938 30.027344 " fill-opacity="1" fill-rule="nonzero"/><path fill="#813b19" d="M 7.398438 30.027344 L 32.835938 30.027344 L 32.835938 28.859375 L 7.398438 28.859375 L 7.398438 30.027344 " fill-opacity="1" fill-rule="nonzero"/><path fill="#944a1c" d="M 32.835938 26.058594 L 7.398438 26.058594 L 7.398438 22.445312 L 32.835938 22.445312 L 32.835938 26.058594 " fill-opacity="1" fill-rule="nonzero"/><path fill="#813b19" d="M 7.652344 26.058594 L 32.582031 26.058594 L 32.582031 24.753906 L 7.652344 24.753906 L 7.652344 26.058594 " fill-opacity="1" fill-rule="nonzero"/><path fill="#af5e24" d="M 8.164062 33.992188 L 6.628906 33.992188 L 6.628906 11.617188 L 8.164062 11.617188 L 8.164062 33.992188 " fill-opacity="1" fill-rule="nonzero"/><path fill="#af5e24" d="M 33.605469 33.992188 L 32.070312 33.992188 L 32.070312 11.617188 L 33.605469 11.617188 L 33.605469 33.992188 " fill-opacity="1" fill-rule="nonzero"/><path fill="#f9d022" d="M 36.007812 31.628906 C 35.835938 30.757812 34.988281 25 28.28125 25.023438 C 21.414062 25 20.726562 30.757812 20.550781 31.628906 C 20.261719 33.078125 20.066406 33.726562 20.066406 33.726562 L 36.492188 33.726562 C 36.492188 33.726562 36.296875 33.078125 36.007812 31.628906 " fill-opacity="1" fill-rule="nonzero"/><path fill="#dea21f" d="M 20.074219 33.699219 C 20.113281 33.566406 20.292969 32.910156 20.550781 31.628906 C 20.710938 30.824219 21.308594 25.863281 26.792969 25.117188 C 26.765625 25.121094 26.738281 25.125 26.714844 25.128906 L 26.65625 25.425781 C 22.683594 26.824219 22.195312 30.835938 22.050781 31.550781 C 21.828125 32.65625 21.664062 33.292969 21.597656 33.535156 C 21.007812 33.582031 20.480469 33.625 20.085938 33.660156 C 20.082031 33.675781 20.078125 33.6875 20.074219 33.699219 " fill-opacity="1" fill-rule="nonzero"/><path fill="#ba671b" d="M 27.496094 25.046875 C 27.226562 25.066406 26.964844 25.09375 26.714844 25.128906 L 25.269531 32.75 C 25.269531 32.75 25.21875 33.28125 24.769531 33.308594 C 23.199219 33.398438 21.148438 33.570312 20.085938 33.660156 C 20.074219 33.703125 20.066406 33.726562 20.066406 33.726562 L 27.324219 33.726562 L 27.496094 25.046875 " fill-opacity="1" fill-rule="nonzero"/><path fill="#f6b41b" d="M 29.757812 25.023438 C 29.757812 25.023438 29.707031 24.601562 29.210938 24.601562 L 27.347656 24.601562 C 26.851562 24.601562 26.800781 25.023438 26.800781 25.023438 L 25.789062 33.722656 C 25.859375 34.03125 26.21875 33.988281 26.21875 33.988281 L 30.339844 33.988281 C 30.339844 33.988281 30.699219 34.03125 30.769531 33.722656 L 29.757812 25.023438 " fill-opacity="1" fill-rule="nonzero"/><g clip-path="url(#6888962604)"><path fill="#f6b41b" d="M 36.933594 33.726562 L 36.101562 33.726562 L 28.28125 33.722656 L 20.457031 33.726562 L 19.625 33.726562 C 19.625 33.726562 18.820312 33.851562 19.152344 34.324219 C 19.152344 34.324219 20.964844 35.359375 28.28125 35.570312 C 35.59375 35.359375 37.40625 34.324219 37.40625 34.324219 C 37.738281 33.851562 36.933594 33.726562 36.933594 33.726562 " fill-opacity="1" fill-rule="nonzero"/><path fill="#e1b789" d="M 28.28125 35.570312 C 20.964844 35.359375 19.152344 34.324219 19.152344 34.324219 C 19.097656 34.246094 19.074219 34.175781 19.074219 34.113281 C 19.074219 34.175781 19.097656 34.246094 19.152344 34.324219 C 19.152344 34.324219 20.964844 35.359375 28.28125 35.570312 C 35.59375 35.359375 37.40625 34.324219 37.40625 34.324219 C 37.40625 34.324219 35.59375 35.359375 28.28125 35.570312 M 37.40625 34.324219 C 37.632812 34 37.328125 33.839844 37.113281 33.769531 C 37.328125 33.839844 37.632812 34 37.40625 34.324219 " fill-opacity="1" fill-rule="nonzero"/></g><path fill="#bb661c" d="M 20.457031 33.726562 L 25.789062 33.722656 L 20.457031 33.726562 " fill-opacity="1" fill-rule="nonzero"/><g clip-path="url(#d43dd19c76)"><path fill="#dd921b" d="M 28.28125 35.570312 C 20.964844 35.359375 19.152344 34.324219 19.152344 34.324219 C 19.097656 34.246094 19.074219 34.171875 19.074219 34.113281 C 19.074219 33.8125 19.625 33.726562 19.625 33.726562 L 20.457031 33.726562 L 25.789062 33.722656 L 28.246094 33.722656 C 28.039062 34.050781 27.945312 34.53125 28.898438 34.761719 C 29.175781 34.832031 29.664062 34.863281 30.273438 34.863281 C 32.371094 34.863281 35.890625 34.46875 37.113281 33.769531 C 37.328125 33.839844 37.632812 34 37.40625 34.324219 C 37.40625 34.324219 35.59375 35.359375 28.28125 35.570312 " fill-opacity="1" fill-rule="nonzero"/><path fill="#ba671b" d="M 37.40625 33.980469 C 37.40625 33.980469 35.59375 35.015625 28.28125 35.230469 C 20.964844 35.015625 19.152344 33.980469 19.152344 33.980469 C 19.144531 33.972656 19.140625 33.960938 19.132812 33.953125 C 19.058594 34.042969 19.039062 34.164062 19.152344 34.324219 C 19.152344 34.324219 20.964844 35.359375 28.28125 35.570312 C 35.59375 35.359375 37.40625 34.324219 37.40625 34.324219 C 37.519531 34.164062 37.5 34.042969 37.425781 33.953125 C 37.417969 33.960938 37.414062 33.972656 37.40625 33.980469 " fill-opacity="1" fill-rule="nonzero"/></g><path fill="#f9e359" d="M 36.007812 31.628906 C 35.875 30.96875 35.355469 27.488281 32.175781 25.863281 C 33.539062 26.847656 35.15625 29.007812 35.265625 33.726562 L 36.492188 33.726562 C 36.492188 33.726562 36.296875 33.078125 36.007812 31.628906 " fill-opacity="1" fill-rule="nonzero"/><path fill="#c7ecdf" d="M 31.683594 25.863281 C 31.683594 25.863281 34.007812 27.183594 34.683594 31.515625 C 34.683594 31.515625 34.898438 32.769531 34.898438 33.378906 L 33.757812 33.378906 C 33.757812 33.378906 33.96875 28.375 31.683594 25.863281 " fill-opacity="1" fill-rule="nonzero"/><path fill="#c7ecdf" d="M 28.941406 33.953125 L 35.238281 33.953125 C 35.238281 33.953125 30.550781 34.910156 28.941406 33.953125 " fill-opacity="1" fill-rule="nonzero"/></svg>